<?xml version="1.0" encoding="UTF-8"?>
<svg version="1.1" xmlns="http://www.w3.org/2000/svg" width="96" height="96">
<path d="M0 0 C6.53024306 4.65133681 6.53024306 4.65133681 8.8671875 6.98828125 C8.90782582 8.6544524 8.9099085 10.3221622 8.8671875 11.98828125 C6.8671875 12.86328125 6.8671875 12.86328125 3.8671875 12.98828125 C2.17578125 11.89453125 2.17578125 11.89453125 0.3046875 10.36328125 C-9.54974788 2.53823795 -19.74446976 0.63949455 -32.02636719 1.69726562 C-40.10868472 2.81387695 -46.27189867 6.84558141 -52.44140625 11.89453125 C-54.1328125 12.98828125 -54.1328125 12.98828125 -57.1328125 12.86328125 C-58.1228125 12.43015625 -58.1228125 12.43015625 -59.1328125 11.98828125 C-59.37109375 9.70703125 -59.37109375 9.70703125 -59.1328125 6.98828125 C-45.49167669 -8.90953628 -16.9040904 -10.85487102 0 0 Z " fill="#000000" transform="translate(73.1328125,6.01171875)"/>
<path d="M0 0 C0.75732422 0.00966797 1.51464844 0.01933594 2.29492188 0.02929688 C3.08060547 0.05443359 3.86628906 0.07957031 4.67578125 0.10546875 C5.87170898 0.12577148 5.87170898 0.12577148 7.09179688 0.14648438 C9.05758092 0.18179786 11.02301707 0.23560428 12.98828125 0.29296875 C12.98828125 2.27296875 12.98828125 4.25296875 12.98828125 6.29296875 C6.55328125 6.78796875 6.55328125 6.78796875 -0.01171875 7.29296875 C-0.01171875 13.23296875 -0.01171875 19.17296875 -0.01171875 25.29296875 C2.29828125 25.62296875 4.60828125 25.95296875 6.98828125 26.29296875 C6.98828125 24.31296875 6.98828125 22.33296875 6.98828125 20.29296875 C5.00828125 20.29296875 3.02828125 20.29296875 0.98828125 20.29296875 C0.98828125 18.31296875 0.98828125 16.33296875 0.98828125 14.29296875 C4.94828125 14.29296875 8.90828125 14.29296875 12.98828125 14.29296875 C12.98828125 20.23296875 12.98828125 26.17296875 12.98828125 32.29296875 C8.87359375 32.38578125 8.87359375 32.38578125 4.67578125 32.48046875 C3.38546997 32.52143677 3.38546997 32.52143677 2.0690918 32.56323242 C1.3862915 32.5707251 0.70349121 32.57821777 0 32.5859375 C-0.69649658 32.60164795 -1.39299316 32.6173584 -2.1105957 32.63354492 C-4.01171875 32.29296875 -4.01171875 32.29296875 -5.73754883 31.1418457 C-7.54029281 28.52598439 -7.40001949 26.57677602 -7.41015625 23.41796875 C-7.41402344 22.268125 -7.41789062 21.11828125 -7.421875 19.93359375 C-7.41027344 18.7321875 -7.39867187 17.53078125 -7.38671875 16.29296875 C-7.39832031 15.0915625 -7.40992188 13.89015625 -7.421875 12.65234375 C-7.41800781 11.5025 -7.41414063 10.35265625 -7.41015625 9.16796875 C-7.40677246 8.11351562 -7.40338867 7.0590625 -7.39990234 5.97265625 C-7.01171875 3.29296875 -7.01171875 3.29296875 -5.73754883 1.4440918 C-3.64039914 0.04529978 -2.50478141 -0.05649883 0 0 Z " fill="#000000" transform="translate(57.01171875,51.70703125)"/>
<path d="M0 0 C2.45972495 1.88150602 4.77150238 3.85032384 7 6 C6.67 7.32 6.34 8.64 6 10 C3.8125 10.75 3.8125 10.75 1 11 C-1.375 9.25 -1.375 9.25 -4 7 C-10.11041904 3.50833198 -16.04327094 3.03011382 -23 4 C-27.52844567 5.632417 -31.57893278 7.57893278 -35 11 C-37.625 10.625 -37.625 10.625 -40 10 C-40.33 8.68 -40.66 7.36 -41 6 C-30.15705222 -4.52573388 -13.59960529 -9.1964544 0 0 Z " fill="#000000" transform="translate(65,19)"/>
<path d="M0 0 C1.98 0 3.96 0 6 0 C6.33 4.29 6.66 8.58 7 13 C9.31 13.33 11.62 13.66 14 14 C14 9.38 14 4.76 14 0 C15.98 0 17.96 0 20 0 C20 10.56 20 21.12 20 32 C18.02 32 16.04 32 14 32 C14 28.04 14 24.08 14 20 C12.246875 20.061875 10.49375 20.12375 8.6875 20.1875 C3.48327556 20.37117851 3.48327556 20.37117851 1.34960938 18.73242188 C-0.29259762 16.62440798 -0.35254862 15.6296553 -0.29296875 12.98828125 C-0.28330078 12.23095703 -0.27363281 11.47363281 -0.26367188 10.69335938 C-0.23853516 9.90767578 -0.21339844 9.12199219 -0.1875 8.3125 C-0.17396484 7.51521484 -0.16042969 6.71792969 -0.14648438 5.89648438 C-0.11117089 3.93070033 -0.05736447 1.96526418 0 0 Z " fill="#000000" transform="translate(26,52)"/>
<path d="M0 0 C2.5 1.625 2.5 1.625 4.5 3.625 C4.125 6.25 4.125 6.25 3.5 8.625 C1.8125 9.3125 1.8125 9.3125 -0.5 9.625 C-1.28375 9.150625 -2.0675 8.67625 -2.875 8.1875 C-6.08928032 6.2742379 -7.81162805 6.16395351 -11.5 6.625 C-12.345625 7.16125 -13.19125 7.6975 -14.0625 8.25 C-14.866875 8.70375 -15.67125 9.1575 -16.5 9.625 C-19.3125 8.8125 -19.3125 8.8125 -21.5 7.625 C-21.1655974 4.53177596 -20.9404882 3.03612232 -18.625 0.875 C-12.89014309 -2.49844524 -6.07123652 -2.38512863 0 0 Z " fill="#000000" transform="translate(56.5,31.375)"/>
<path d="M0 0 C1.98 0 3.96 0 6 0 C6 1.65 6 3.3 6 5 C7.65 5 9.3 5 11 5 C11 6.98 11 8.96 11 11 C9.35 11 7.7 11 6 11 C6 12.65 6 14.3 6 16 C4.02 16 2.04 16 0 16 C0 14.35 0 12.7 0 11 C-1.65 11 -3.3 11 -5 11 C-5 9.02 -5 7.04 -5 5 C-3.35 5 -1.7 5 0 5 C0 3.35 0 1.7 0 0 Z " fill="#000000" transform="translate(81,44)"/>
</svg>
