<?xml version="1.0" standalone="no"?>
<!DOCTYPE svg PUBLIC "-//W3C//DTD SVG 20010904//EN"
 "http://www.w3.org/TR/2001/REC-SVG-20010904/DTD/svg10.dtd">
<svg version="1.0" xmlns="http://www.w3.org/2000/svg"
 width="96.000000pt" height="96.000000pt" viewBox="0 0 96.000000 96.000000"
 preserveAspectRatio="xMidYMid meet">

<g transform="translate(0.000000,96.000000) scale(0.100000,-0.100000)"
fill="#000000" stroke="none">
<path d="M292 900 c-56 -63 -63 -93 -25 -98 15 -2 28 6 40 25 18 27 18 26 23
-137 l5 -165 25 0 25 0 5 165 c5 163 5 164 23 137 20 -32 59 -34 65 -5 4 21
-96 138 -118 138 -8 0 -39 -27 -68 -60z"/>
<path d="M577 954 c-4 -4 -7 -80 -7 -168 l0 -161 -23 29 c-25 31 -59 33 -65 3
-4 -20 96 -137 118 -137 22 0 122 117 118 138 -6 29 -45 27 -65 -5 -18 -27
-18 -26 -23 137 -5 157 -6 165 -25 168 -12 2 -24 0 -28 -4z"/>
<path d="M817 514 c-4 -4 -7 -15 -7 -25 0 -11 -9 -19 -22 -21 -32 -4 -33 -52
-1 -56 14 -2 23 -11 25 -25 2 -16 10 -22 28 -22 18 0 26 6 28 22 2 14 11 23
25 25 16 2 22 10 22 28 0 18 -6 26 -22 28 -14 2 -23 11 -25 25 -3 22 -36 35
-51 21z"/>
<path d="M267 434 c-4 -4 -7 -40 -7 -79 0 -90 20 -115 93 -115 l46 0 3 -57 c3
-54 5 -58 28 -58 l25 0 0 155 0 155 -25 0 c-24 0 -25 -3 -28 -67 l-3 -68 -39
0 -39 0 -3 68 c-3 59 -6 67 -23 70 -12 2 -24 0 -28 -4z"/>
<path d="M522 417 c-20 -21 -22 -33 -22 -138 0 -108 1 -117 24 -138 20 -19 32
-22 97 -19 l74 3 0 85 0 85 -55 0 c-52 0 -55 -1 -55 -25 0 -20 6 -26 28 -28
23 -3 27 -8 27 -33 0 -27 -2 -29 -40 -29 l-40 0 0 100 0 99 68 3 c64 3 67 4
67 28 0 24 -2 25 -75 28 -69 2 -78 1 -98 -21z"/>
</g>
</svg>
