<?xml version="1.0" standalone="no"?>
<!DOCTYPE svg PUBLIC "-//W3C//DTD SVG 20010904//EN"
 "http://www.w3.org/TR/2001/REC-SVG-20010904/DTD/svg10.dtd">
<svg version="1.0" xmlns="http://www.w3.org/2000/svg"
 width="96.000000pt" height="96.000000pt" viewBox="0 0 96.000000 96.000000"
 preserveAspectRatio="xMidYMid meet">

<g transform="translate(0.000000,96.000000) scale(0.100000,-0.100000)"
fill="#000000" stroke="none">
<path d="M857 954 c-4 -4 -7 -15 -7 -25 0 -11 -9 -19 -22 -21 -32 -4 -33 -52
-1 -56 14 -2 23 -11 25 -25 4 -31 52 -31 56 0 2 14 11 23 25 25 16 2 22 10 22
28 0 18 -6 26 -22 28 -14 2 -23 11 -25 25 -3 22 -36 35 -51 21z"/>
<path d="M387 914 c-4 -4 -7 -33 -7 -64 0 -69 25 -100 83 -100 l36 0 3 -52 c3
-49 5 -53 28 -53 l25 0 0 135 0 135 -25 0 c-23 0 -25 -4 -28 -52 -3 -51 -4
-53 -32 -53 -28 0 -29 2 -32 53 -3 44 -6 52 -23 55 -12 2 -24 0 -28 -4z"/>
<path d="M602 897 c-20 -21 -22 -34 -22 -118 0 -88 2 -97 24 -118 20 -19 33
-22 87 -19 l64 3 0 75 0 75 -45 0 c-39 0 -45 -3 -48 -23 -3 -17 2 -25 17 -29
12 -3 21 -14 21 -24 0 -14 -7 -19 -30 -19 l-30 0 0 80 0 79 58 3 c53 3 57 5
57 28 0 24 -3 25 -65 28 -58 2 -68 0 -88 -21z"/>
<path d="M98 825 c-56 -31 -58 -44 -58 -405 0 -363 2 -375 60 -405 23 -12 67
-15 200 -15 269 0 261 -9 258 332 l-3 243 -25 0 -25 0 -3 -198 -2 -197 -200 0
-200 0 0 283 c0 159 4 289 10 297 7 11 35 16 107 20 97 5 98 5 98 30 0 25 -1
25 -95 27 -69 2 -102 -2 -122 -12z m402 -719 c0 -8 -7 -22 -16 -30 -23 -24
-345 -24 -368 0 -9 8 -16 22 -16 30 0 12 33 14 200 14 167 0 200 -2 200 -14z"/>
</g>
</svg>
