<?xml version="1.0" encoding="UTF-8"?>
<svg version="1.1" xmlns="http://www.w3.org/2000/svg" width="96" height="96">
<path d="M0 0 C1.98 0 3.96 0 6 0 C6.495 4.95 6.495 4.95 7 10 C9.475 10.495 9.475 10.495 12 11 C12 7.37 12 3.74 12 0 C13.98 0 15.96 0 18 0 C18 9.24 18 18.48 18 28 C17.01 28 16.02 28 15 28 C15 29.98 15 31.96 15 34 C15.99 34 16.98 34 18 34 C18.1014521 41.31392566 18.17148763 48.62766974 18.21972656 55.94213867 C18.23983705 58.43016338 18.26712927 60.91814086 18.30175781 63.40600586 C18.35029853 66.98302875 18.37297495 70.55942651 18.390625 74.13671875 C18.41127014 75.24834885 18.43191528 76.35997894 18.45318604 77.5052948 C18.45543083 85.23776801 18.45543083 85.23776801 16.10058594 89.17895508 C12.09372675 92.65259091 8.31122907 92.1940719 3.23046875 92.23828125 C2.35731522 92.246353 1.48416168 92.25442474 0.58454895 92.26274109 C-1.2656353 92.27658364 -3.11584512 92.28730503 -4.96606445 92.29516602 C-7.79102197 92.3123692 -10.61480621 92.35625166 -13.43945312 92.40039062 C-15.23697056 92.41051847 -17.03449795 92.41903429 -18.83203125 92.42578125 C-19.67490189 92.44328934 -20.51777252 92.46079742 -21.38618469 92.47883606 C-25.45728486 92.46383565 -27.48762076 92.32364949 -31.01049805 90.09838867 C-34.41329206 86.50935756 -34.13892603 84.11467125 -34.17700195 79.24291992 C-34.18357315 78.54840225 -34.19014435 77.85388458 -34.19691467 77.13832092 C-34.21665458 74.83570247 -34.22831196 72.53314926 -34.23828125 70.23046875 C-34.24235678 69.44419916 -34.2464323 68.65792957 -34.25063133 67.84783363 C-34.27149541 63.68591194 -34.28579542 59.52402324 -34.29516602 55.36206055 C-34.30622899 51.06445181 -34.34062611 46.76736107 -34.38033772 42.46993542 C-34.40649152 39.16448508 -34.41485674 35.85915837 -34.41844749 32.55361366 C-34.42331699 30.96958227 -34.43494143 29.38555653 -34.45348549 27.80162621 C-34.47785119 25.58242214 -34.47691743 23.36456073 -34.4699707 21.14526367 C-34.47583694 19.88332687 -34.48170319 18.62139008 -34.48774719 17.32121277 C-33.91371419 13.41245478 -32.75181555 11.77846431 -30 9 C-27.49502996 7.74751498 -25.79146726 7.88625594 -22.9921875 7.90234375 C-22.00605469 7.90556641 -21.01992188 7.90878906 -20.00390625 7.91210938 C-18.97136719 7.92048828 -17.93882813 7.92886719 -16.875 7.9375 C-15.31458984 7.94426758 -15.31458984 7.94426758 -13.72265625 7.95117188 C-11.14838038 7.96298048 -8.57421854 7.97944925 -6 8 C-5.67 8.66 -5.34 9.32 -5 10 C-2.525 10.495 -2.525 10.495 0 11 C0 7.37 0 3.74 0 0 Z " fill="#EBEEF0" transform="translate(38,4)"/>
<path d="M0 0 C0.98613281 0.00322266 1.97226562 0.00644531 2.98828125 0.00976562 C4.02082031 0.01814453 5.05335937 0.02652344 6.1171875 0.03515625 C7.67759766 0.04192383 7.67759766 0.04192383 9.26953125 0.04882812 C11.84380712 0.06063673 14.41796896 0.0771055 16.9921875 0.09765625 C17.3221875 1.08765625 17.6521875 2.07765625 17.9921875 3.09765625 C17.0021875 4.58265625 17.0021875 4.58265625 15.9921875 6.09765625 C9.3921875 6.42765625 2.7921875 6.75765625 -4.0078125 7.09765625 C-4.3378125 26.56765625 -4.6678125 46.03765625 -5.0078125 66.09765625 C8.1921875 66.09765625 21.3921875 66.09765625 34.9921875 66.09765625 C34.95258345 53.3077183 34.95258345 53.3077183 34.90209961 40.51782227 C34.89918047 38.92073635 34.89663191 37.3236497 34.89453125 35.7265625 C34.88941528 34.88959839 34.88429932 34.05263428 34.87902832 33.19030762 C34.87871826 31.1590736 34.92978562 29.12793154 34.9921875 27.09765625 C35.9921875 26.09765625 35.9921875 26.09765625 38.5546875 26.03515625 C39.76125 26.06609375 39.76125 26.06609375 40.9921875 26.09765625 C41.0936396 33.41158191 41.16367513 40.72532599 41.21191406 48.03979492 C41.23202455 50.52781963 41.25931677 53.01579711 41.29394531 55.50366211 C41.34248603 59.080685 41.36516245 62.65708276 41.3828125 66.234375 C41.40345764 67.3460051 41.42410278 68.45763519 41.44537354 69.60295105 C41.44761833 77.33542426 41.44761833 77.33542426 39.09277344 81.27661133 C35.08591425 84.75024716 31.30341657 84.29172815 26.22265625 84.3359375 C25.34950272 84.34400925 24.47634918 84.35208099 23.57673645 84.36039734 C21.7265522 84.37423989 19.87634238 84.38496128 18.02612305 84.39282227 C15.20116553 84.41002545 12.37738129 84.45390791 9.55273438 84.49804688 C7.75521694 84.50817472 5.95768955 84.51669054 4.16015625 84.5234375 C3.31728561 84.54094559 2.47441498 84.55845367 1.60600281 84.57649231 C-2.46509736 84.5614919 -4.49543326 84.42130574 -8.01831055 82.19604492 C-11.42110456 78.60701381 -11.14673853 76.2123275 -11.18481445 71.34057617 C-11.19138565 70.6460585 -11.19795685 69.95154083 -11.20472717 69.23597717 C-11.22446708 66.93335872 -11.23612446 64.63080551 -11.24609375 62.328125 C-11.25016928 61.54185541 -11.2542448 60.75558582 -11.25844383 59.94548988 C-11.27930791 55.78356819 -11.29360792 51.62167949 -11.30297852 47.4597168 C-11.31404149 43.16210806 -11.34843861 38.86501732 -11.38815022 34.56759167 C-11.41430402 31.26214133 -11.42266924 27.95681462 -11.42625999 24.65126991 C-11.43112949 23.06723852 -11.44275393 21.48321278 -11.46129799 19.89928246 C-11.48566369 17.68007839 -11.48472993 15.46221698 -11.4777832 13.24291992 C-11.48364944 11.98098312 -11.48951569 10.71904633 -11.49555969 9.41886902 C-10.92152669 5.51011103 -9.75962805 3.87612056 -7.0078125 1.09765625 C-4.50284246 -0.15482877 -2.79927976 -0.01608781 0 0 Z " fill="#000000" transform="translate(15.0078125,11.90234375)"/>
<path d="M0 0 C0.70189453 0.01353516 1.40378906 0.02707031 2.12695312 0.04101562 C3.85579829 0.07629818 5.58424765 0.13010417 7.3125 0.1875 C7.3125 2.1675 7.3125 4.1475 7.3125 6.1875 C1.8675 6.6825 1.8675 6.6825 -3.6875 7.1875 C-3.6875 11.8075 -3.6875 16.4275 -3.6875 21.1875 C-2.0375 21.5175 -0.3875 21.8475 1.3125 22.1875 C1.3125 20.8675 1.3125 19.5475 1.3125 18.1875 C-0.0075 18.1875 -1.3275 18.1875 -2.6875 18.1875 C-2.6875 16.2075 -2.6875 14.2275 -2.6875 12.1875 C0.6125 12.1875 3.9125 12.1875 7.3125 12.1875 C7.3125 17.4675 7.3125 22.7475 7.3125 28.1875 C3.6928125 28.2803125 3.6928125 28.2803125 0 28.375 C-0.75579346 28.40231201 -1.51158691 28.42962402 -2.2902832 28.45776367 C-7.22031992 28.5191663 -7.22031992 28.5191663 -9.38598633 26.98168945 C-11.1055907 24.61114498 -11.07482254 23.10067907 -11.0859375 20.1875 C-11.08980469 19.218125 -11.09367187 18.24875 -11.09765625 17.25 C-11.08605469 16.239375 -11.07445312 15.22875 -11.0625 14.1875 C-11.07410156 13.176875 -11.08570313 12.16625 -11.09765625 11.125 C-11.09378906 10.155625 -11.08992188 9.18625 -11.0859375 8.1875 C-11.08255371 7.300625 -11.07916992 6.41375 -11.07568359 5.5 C-10.6875 3.1875 -10.6875 3.1875 -9.38598633 1.39331055 C-6.55141526 -0.61904341 -3.33617086 -0.12148521 0 0 Z " fill="#000000" transform="translate(68.6875,3.8125)"/>
<path d="M0 0 C1.98 0 3.96 0 6 0 C6.33 3.3 6.66 6.6 7 10 C8.65 10.33 10.3 10.66 12 11 C12 7.37 12 3.74 12 0 C13.98 0 15.96 0 18 0 C18 9.24 18 18.48 18 28 C16.35 28 14.7 28 13 28 C12 27 12 27 11.90234375 24.71484375 C11.91394531 23.79832031 11.92554688 22.88179687 11.9375 21.9375 C11.94652344 21.01839844 11.95554687 20.09929688 11.96484375 19.15234375 C11.97644531 18.44207031 11.98804688 17.73179688 12 17 C10.7625 17.103125 9.525 17.20625 8.25 17.3125 C5.08105749 17.27316915 4.19041413 17.13328989 1.5 15.25 C-0.79775826 10.27152376 -0.30977833 5.39530594 0 0 Z " fill="#010101" transform="translate(38,4)"/>
<path d="M0 0 C13.2 0 26.4 0 40 0 C39.67 1.65 39.34 3.3 39 5 C35.96510104 6.51744948 32.80324014 6.1835738 29.47265625 6.203125 C28.35557533 6.21167511 28.35557533 6.21167511 27.21592712 6.22039795 C25.63981549 6.22984791 24.06368409 6.23638192 22.48754883 6.24023438 C20.07533397 6.24994832 17.66396823 6.28097361 15.25195312 6.3125 C13.72135923 6.31902932 12.19075924 6.32428007 10.66015625 6.328125 C9.57723045 6.3466452 9.57723045 6.3466452 8.47242737 6.36553955 C5.5368401 6.35246881 3.49634979 6.33437012 1.02124023 4.66699219 C0 3 0 3 0 0 Z " fill="#CA5CE5" transform="translate(10,84)"/>
<path d="M0 0 C1.98 0 3.96 0 6 0 C6 1.65 6 3.3 6 5 C7.65 5 9.3 5 11 5 C11 6.98 11 8.96 11 11 C9.35 11 7.7 11 6 11 C6 12.65 6 14.3 6 16 C4.02 16 2.04 16 0 16 C0 14.35 0 12.7 0 11 C-1.65 11 -3.3 11 -5 11 C-5 9.02 -5 7.04 -5 5 C-3.35 5 -1.7 5 0 5 C0 3.35 0 1.7 0 0 Z " fill="#000000" transform="translate(85,0)"/>
</svg>
