<svg xmlns="http://www.w3.org/2000/svg" version="1.1" xmlns:xlink="http://www.w3.org/1999/xlink" xmlns:svgjs="http://svgjs.dev/svgjs" width="2560" height="1400" preserveAspectRatio="none" viewBox="0 0 2560 1400"><g mask="url(&quot;#SvgjsMask3488&quot;)" fill="none"><rect width="2560" height="1400" x="0" y="0" fill="url(&quot;#SvgjsLinearGradient3489&quot;)"></rect><path d="M2560 0L1681.48 0L2560 242.38z" fill="rgba(255, 255, 255, .1)"></path><path d="M1681.48 0L2560 242.38L2560 609.3L1211.06 0z" fill="rgba(255, 255, 255, .075)"></path><path d="M1211.06 0L2560 609.3L2560 1095.69L665.03 0z" fill="rgba(255, 255, 255, .05)"></path><path d="M665.03 0L2560 1095.69L2560 1126.78L547.64 0z" fill="rgba(255, 255, 255, .025)"></path><path d="M0 1400L237.32 1400L0 1132.63z" fill="rgba(0, 0, 0, .1)"></path><path d="M0 1132.63L237.32 1400L383.08 1400L0 528.9000000000001z" fill="rgba(0, 0, 0, .075)"></path><path d="M0 528.9L383.08 1400L1507.6 1400L0 506.09999999999997z" fill="rgba(0, 0, 0, .05)"></path><path d="M0 506.1L1507.6 1400L2036.55 1400L0 398.90000000000003z" fill="rgba(0, 0, 0, .025)"></path></g><defs><mask id="SvgjsMask3488"><rect width="2560" height="1400" fill="#ffffff"></rect></mask><linearGradient x1="50%" y1="100%" x2="50%" y2="0%" gradientUnits="userSpaceOnUse" id="SvgjsLinearGradient3489"><stop stop-color="rgba(14, 42, 71, 1)" offset="0"></stop><stop stop-color="rgba(220, 30, 185, 1)" offset="0.8"></stop></linearGradient></defs></svg>