<?xml version="1.0" encoding="UTF-8"?>
<svg version="1.1" xmlns="http://www.w3.org/2000/svg" width="48" height="48">
<path d="M0 0 C1.36560059 0.00303635 1.36560059 0.00303635 2.75878906 0.00613403 C3.68723633 0.00517731 4.61568359 0.00422058 5.57226562 0.00323486 C7.53938871 0.00255298 9.50651403 0.00440781 11.47363281 0.00857544 C14.49581932 0.01392358 17.51785721 0.00863071 20.54003906 0.00222778 C22.44628939 0.00288856 24.35253963 0.00416972 26.25878906 0.00613403 C27.16918945 0.0041098 28.07958984 0.00208557 29.01757812 0 C35.39383938 0.02399685 35.39383938 0.02399685 36.50878906 1.13894653 C36.60872438 3.19949964 36.63959812 5.26347243 36.64160156 7.32644653 C36.64353516 9.20976685 36.64353516 9.20976685 36.64550781 11.13113403 C36.64341309 11.78823364 36.64131836 12.44533325 36.63916016 13.12234497 C36.6338114 15.13055988 36.63910597 17.13855112 36.64550781 19.14675903 C36.64421875 20.40230591 36.64292969 21.65785278 36.64160156 22.95144653 C36.64047363 24.11289185 36.6393457 25.27433716 36.63818359 26.47097778 C36.50878906 29.13894653 36.50878906 29.13894653 35.50878906 30.13894653 C32.41797441 30.24011574 29.34996351 30.27863211 26.25878906 30.27175903 C25.3303418 30.27271576 24.40189453 30.27367249 23.4453125 30.2746582 C21.47818942 30.27534008 19.5110641 30.27348525 17.54394531 30.26931763 C14.5217588 30.26396948 11.49972092 30.26926236 8.47753906 30.27566528 C6.57128873 30.2750045 4.6650385 30.27372334 2.75878906 30.27175903 C1.39318848 30.27479538 1.39318848 30.27479538 0 30.27789307 C-6.37626125 30.25389622 -6.37626125 30.25389622 -7.49121094 29.13894653 C-7.59114625 27.07839343 -7.62201999 25.01442063 -7.62402344 22.95144653 C-7.6253125 21.69589966 -7.62660156 20.44035278 -7.62792969 19.14675903 C-7.62583496 18.48965942 -7.62374023 17.83255981 -7.62158203 17.1555481 C-7.61623327 15.14733319 -7.62152785 13.13934194 -7.62792969 11.13113403 C-7.62664063 9.87558716 -7.62535156 8.62004028 -7.62402344 7.32644653 C-7.62233154 5.58427856 -7.62233154 5.58427856 -7.62060547 3.80691528 C-7.37215884 -1.31577287 -4.44271979 0.01672003 0 0 Z M-5.49121094 4.13894653 C-5.80172935 6.43285084 -5.80172935 6.43285084 -5.75683594 9.07644653 C-5.75941406 10.05355591 -5.76199219 11.03066528 -5.76464844 12.03738403 C-5.75691406 13.06089966 -5.74917969 14.08441528 -5.74121094 15.13894653 C-5.74894531 16.16246216 -5.75667969 17.18597778 -5.76464844 18.24050903 C-5.76207031 19.21761841 -5.75949219 20.19472778 -5.75683594 21.20144653 C-5.75458008 22.0999231 -5.75232422 22.99839966 -5.75 23.92410278 C-5.69930036 26.34436818 -5.69930036 26.34436818 -3.49121094 28.13894653 C-0.78985771 28.33868387 1.80676118 28.41876226 4.50878906 28.40457153 C5.69601562 28.40744171 5.69601562 28.40744171 6.90722656 28.41036987 C8.58170896 28.41173171 10.25620191 28.40803535 11.93066406 28.39968872 C14.49861287 28.38898893 17.06586209 28.39958378 19.63378906 28.41238403 C21.25879061 28.41106244 22.88379172 28.40850004 24.50878906 28.40457153 C25.66507813 28.41064423 25.66507813 28.41064423 26.84472656 28.4168396 C31.14008343 28.53539364 31.14008343 28.53539364 34.50878906 26.13894653 C34.81930747 23.84504222 34.81930747 23.84504222 34.77441406 21.20144653 C34.77699219 20.22433716 34.77957031 19.24722778 34.78222656 18.24050903 C34.770625 16.7052356 34.770625 16.7052356 34.75878906 15.13894653 C34.76652344 14.11543091 34.77425781 13.09191528 34.78222656 12.03738403 C34.77835938 10.57171997 34.77835938 10.57171997 34.77441406 9.07644653 C34.7721582 8.17796997 34.76990234 7.27949341 34.76757812 6.35379028 C34.71687848 3.93352488 34.71687848 3.93352488 32.50878906 2.13894653 C29.80743583 1.9392092 27.21081695 1.8591308 24.50878906 1.87332153 C23.3215625 1.87045135 23.3215625 1.87045135 22.11035156 1.86752319 C20.43586916 1.86616136 18.76137621 1.86985772 17.08691406 1.87820435 C14.51896525 1.88890413 11.95171603 1.87830928 9.38378906 1.86550903 C7.75878751 1.86683063 6.1337864 1.86939302 4.50878906 1.87332153 C3.3525 1.86724884 3.3525 1.86724884 2.17285156 1.86105347 C-2.1225053 1.74249942 -2.1225053 1.74249942 -5.49121094 4.13894653 Z " fill="#1A1A1A" transform="translate(9.4912109375,7.861053466796875)"/>
<path d="M0 0 C8.58 0 17.16 0 26 0 C26 0.66 26 1.32 26 2 C17.42 2 8.84 2 0 2 C0 1.34 0 0.68 0 0 Z " fill="#1A1A1A" transform="translate(11,40)"/>
</svg>
