<?xml version="1.0" standalone="no"?>
<!DOCTYPE svg PUBLIC "-//W3C//DTD SVG 20010904//EN"
 "http://www.w3.org/TR/2001/REC-SVG-20010904/DTD/svg10.dtd">
<svg version="1.0" xmlns="http://www.w3.org/2000/svg"
 width="1334.000000pt" height="1334.000000pt" viewBox="0 0 1334.000000 1334.000000"
 preserveAspectRatio="xMidYMid meet">
<metadata>
Created by potrace 1.14, written by Peter Selinger 2001-2017
</metadata>
<g transform="translate(0.000000,1334.000000) scale(0.100000,-0.100000)"
fill="#000000" stroke="none">
<path d="M5369 10996 c-1 0 -2 -137 -3 -303 l-1 -303 1212 0 1213 0 0 304 0
303 -1210 0 c-665 0 -1211 0 -1211 -1z"/>
<path d="M5366 9531 c-1 -3 -2 -275 -2 -603 1 -396 -2 -598 -9 -598 -5 -1
-278 -1 -605 -1 l-595 0 0 -1514 c0 -833 2 -1515 5 -1516 3 0 272 -1 598 -2
397 -1 597 1 602 8 5 6 9 258 9 560 0 303 0 571 0 596 l1 47 1178 0 c647 1
1192 1 1209 1 l33 1 2 302 3 303 600 0 600 0 3 1211 2 1211 -1815 0 c-999 0
-1817 -3 -1819 -6z m2420 -1507 l1 -301 -1209 0 -1208 0 -1 21 c-3 114 0 567
4 573 3 4 547 8 1209 8 l1203 0 1 -301z"/>
<path d="M7789 5905 c0 0 0 -136 -1 -302 l0 -303 -1212 0 -1211 0 0 -605 c0
-531 2 -605 15 -606 17 -1 3477 0 3563 0 l57 1 0 908 0 907 -605 0 c-333 0
-605 0 -606 0z"/>
<path d="M8700 3840 c-19 -19 -20 -34 -17 -300 2 -305 1 -300 58 -300 39 0 51
22 53 92 1 55 4 66 27 86 15 12 29 22 32 22 2 0 21 -28 42 -62 75 -126 86
-138 116 -138 29 0 59 30 55 55 -1 7 -32 62 -69 121 l-66 108 49 48 c50 49 62
82 38 106 -29 29 -60 13 -138 -68 -42 -44 -79 -80 -81 -80 -2 0 -4 65 -4 145
-1 116 -4 148 -16 160 -24 24 -58 26 -79 5z"/>
<path d="M6566 3818 c-10 -14 -16 -44 -16 -79 0 -55 -1 -57 -30 -62 -25 -6
-30 -11 -30 -37 0 -26 5 -31 30 -36 l30 -6 0 -135 c0 -194 19 -226 131 -224
65 1 97 15 105 47 8 33 -8 45 -60 42 -56 -3 -61 11 -61 148 0 111 2 119 20
122 60 9 65 12 65 41 0 31 -14 41 -58 41 -26 0 -27 1 -28 67 -1 52 -5 69 -20
80 -27 20 -61 16 -78 -9z"/>
<path d="M6148 3695 c-2 -2 -19 -5 -39 -8 -74 -9 -150 -75 -165 -141 -41 -177
53 -310 217 -307 104 1 194 59 187 120 -5 40 -39 39 -93 -3 -57 -43 -91 -51
-137 -32 -35 15 -74 73 -65 99 2 8 45 12 137 12 128 1 133 2 152 25 16 20 18
33 13 70 -12 84 -71 142 -160 159 -24 5 -46 7 -47 6z m61 -106 c25 -24 44 -66
35 -80 -7 -12 -194 -12 -194 0 0 50 51 101 100 101 23 0 44 -8 59 -21z"/>
<path d="M5379 3674 c-17 -20 -20 -375 -4 -408 7 -14 22 -22 46 -24 48 -4 55
16 57 160 1 130 11 162 59 189 37 21 85 9 101 -26 7 -16 12 -79 12 -159 0
-116 2 -135 18 -149 10 -10 30 -17 44 -17 46 0 51 19 51 185 0 176 -12 216
-74 248 -48 25 -126 19 -176 -15 l-39 -26 -13 29 c-10 22 -19 29 -41 29 -15 0
-34 -7 -41 -16z"/>
<path d="M6886 3674 c-9 -8 -16 -21 -16 -27 1 -24 116 -355 133 -380 13 -20
26 -27 50 -27 17 0 37 4 43 8 13 8 30 55 64 182 13 47 27 88 30 93 3 4 23 -50
43 -119 42 -146 55 -166 106 -162 43 4 42 1 116 213 56 162 64 202 43 223 -20
20 -63 14 -76 -10 -9 -18 -74 -232 -86 -282 -1 -5 -12 26 -25 70 -60 209 -72
234 -116 234 -42 0 -63 -30 -93 -140 -17 -58 -33 -118 -37 -135 -9 -40 -16
-26 -55 115 -18 63 -39 125 -47 138 -16 26 -54 29 -77 6z"/>
<path d="M7760 3674 c-98 -42 -148 -163 -118 -283 50 -197 364 -203 422 -10
40 130 -21 268 -132 299 -53 14 -131 12 -172 -6z m158 -91 c31 -23 48 -76 44
-132 -7 -105 -80 -155 -161 -112 -73 39 -68 216 8 255 32 17 78 12 109 -11z"/>
<path d="M8259 3674 c-17 -20 -20 -375 -4 -408 13 -27 61 -33 85 -11 14 13 17
33 18 120 0 116 7 158 30 194 15 22 20 23 75 17 66 -7 87 3 87 39 0 33 -34 57
-88 63 -44 4 -51 1 -80 -28 -27 -26 -32 -28 -32 -13 0 11 -5 24 -12 31 -17 17
-63 15 -79 -4z"/>
</g>
</svg>
